<?xml version="1.0" encoding="utf-8"?>
<!-- Generator: Adobe Illustrator 16.0.0, SVG Export Plug-In . SVG Version: 6.00 Build 0)  -->
<!DOCTYPE svg PUBLIC "-//W3C//DTD SVG 1.1//EN" "http://www.w3.org/Graphics/SVG/1.1/DTD/svg11.dtd">
<svg version="1.1" id="Layer_1" xmlns="http://www.w3.org/2000/svg" xmlns:xlink="http://www.w3.org/1999/xlink" x="0px" y="0px"
	 width="49.611px" height="31.495px" viewBox="0 0 49.611 31.495" enable-background="new 0 0 49.611 31.495" xml:space="preserve">
<rect fill="#FFFFFF" width="49.611" height="31.495"/>
<circle fill="#E24645" cx="24.806" cy="15.748" r="11.556"/>
<g>
	<path fill="#FFFFFF" d="M23.923,16.596l-0.315-4.722c-0.059-0.92-0.089-1.58-0.089-1.982c0-0.545,0.143-0.97,0.429-1.276
		c0.286-0.307,0.662-0.458,1.129-0.458c0.565,0,0.942,0.196,1.133,0.587c0.191,0.391,0.286,0.954,0.286,1.69
		c0,0.434-0.022,0.874-0.068,1.321l-0.424,4.859c-0.047,0.58-0.145,1.023-0.296,1.332c-0.151,0.309-0.401,0.463-0.749,0.463
		c-0.354,0-0.602-0.15-0.739-0.449C24.081,17.662,23.982,17.208,23.923,16.596z M25.017,23.083c-0.4,0-0.751-0.129-1.05-0.389
		c-0.299-0.26-0.448-0.623-0.448-1.09c0-0.407,0.143-0.754,0.429-1.04s0.636-0.429,1.05-0.429s0.768,0.144,1.061,0.429
		c0.292,0.286,0.438,0.633,0.438,1.04c0,0.46-0.147,0.821-0.443,1.084C25.756,22.951,25.411,23.083,25.017,23.083z"/>
</g>
</svg>
