<?xml version="1.0" encoding="utf-8"?>
<!-- Generator: Adobe Illustrator 16.0.0, SVG Export Plug-In . SVG Version: 6.00 Build 0)  -->
<!DOCTYPE svg PUBLIC "-//W3C//DTD SVG 1.1//EN" "http://www.w3.org/Graphics/SVG/1.1/DTD/svg11.dtd">
<svg version="1.1" id="Layer_1" xmlns="http://www.w3.org/2000/svg" xmlns:xlink="http://www.w3.org/1999/xlink" x="0px" y="0px"
	 width="49.611px" height="31.495px" viewBox="0 0 49.611 31.495" enable-background="new 0 0 49.611 31.495" xml:space="preserve">
<rect fill="#FFFFFF" width="49.611" height="31.495"/>
<path fill="#E24645" d="M26.498,15.749L30.9,11.48c0.467-0.453,0.479-1.198,0.027-1.666c-0.461-0.467-1.201-0.479-1.667-0.024
	l-4.455,4.318L20.35,9.791c-0.467-0.455-1.207-0.443-1.666,0.024c-0.452,0.468-0.441,1.213,0.027,1.666l4.402,4.269l-4.402,4.268
	c-0.469,0.457-0.479,1.199-0.027,1.667c0.234,0.238,0.54,0.357,0.847,0.357c0.294,0,0.59-0.111,0.819-0.33l4.456-4.32l4.455,4.32
	c0.229,0.218,0.524,0.33,0.821,0.33c0.306,0,0.611-0.119,0.846-0.357c0.452-0.467,0.439-1.21-0.027-1.667L26.498,15.749z"/>
</svg>
